<svg xmlns="http://www.w3.org/2000/svg" viewBox="0 0 256 256" role="img" aria-label="Lexora logo"><defs><linearGradient id="g" x1="20" y1="20" x2="230" y2="230"><stop stop-color="#66D17A"/><stop offset=".58" stop-color="#78DDBD"/><stop offset="1" stop-color="#8EA5FF"/></linearGradient><filter id="s" x="-20%" y="-20%" width="140%" height="140%"><feDropShadow dx="0" dy="16" stdDeviation="16" flood-color="#139A54" flood-opacity=".22"/></filter></defs><rect x="24" y="24" width="208" height="208" rx="58" fill="url(#g)" filter="url(#s)"/><path d="M75 88c0-17 14-31 31-31h44c17 0 31 14 31 31v64c0 17-14 31-31 31h-44c-17 0-31-14-31-31V88Z" fill="#fff" opacity=".95"/><circle cx="105" cy="112" r="15" fill="#123126"/><circle cx="151" cy="112" r="15" fill="#123126"/><circle cx="110" cy="107" r="5" fill="#fff"/><circle cx="156" cy="107" r="5" fill="#fff"/><path d="M128 126l14 18h-28l14-18Z" fill="#FFB020"/><path d="M92 166c21 13 51 13 72 0" fill="none" stroke="#66D17A" stroke-width="12" stroke-linecap="round"/><path d="M70 86l-22-18m138 18l22-18" stroke="#fff" stroke-width="12" stroke-linecap="round" opacity=".9"/><text x="128" y="222" text-anchor="middle" font-family="Inter,Arial,sans-serif" font-size="28" font-weight="900" fill="#fff">LX</text></svg>